<svg viewBox="0 0 1500 1200" xmlns="http://www.w3.org/2000/svg" xml:space="preserve"
  style="fill-rule:evenodd;clip-rule:evenodd">
  <path
    d="M0-2.343c-.043-.008-.087-.012-.131-.02-.291-.367-.744-.668-1.081-.654-.057.002-.098.022-.148.031-.685-.045-1.327.53-1.712 1.024-.349.447-.404 1.178.191 1.48.092.047.194.077.293.114-.004.068-.01.14-.013.209-.022.513.503.847.968.738.818-.195 1.53-.83 1.71-1.604.11-.22.208-.445.271-.705.06-.246-.075-.564-.348-.613"
    style="fill:#231f20;fill-rule:nonzero" transform="translate(274.213 857.417) scale(4.16667)" />
  <path style="fill:#fff" d="M0 0h1500v1191.5H0z" transform="scale(1 1.00713)" />
  <path
    d="M0-4.93a9.043 9.043 0 0 0-1.345-1.566c-1.421-1.301-3.219.619-2.067 2.066a16.333 16.333 0 0 1 1.709 2.574c.344.647 1.048.838 1.681.674C2.369 2.386-14.776 9.715-18.533 8.013c-.016-.009-.031-.021-.047-.029a.986.986 0 0 0-.098-.98c-3.631-5.368-1.094-11.873 2.145-16.77.38-.574.028-1.219-.515-1.465.084-.015.169-.031.25-.053 2.415-.666 4.007-2.814 6.662-3.046 2.705-.237 5.644.455 8.136 1.767-.52.281-.652.852-.494 1.375-3.416.672-6.935.295-10.396.565-1.164.091-1.149 1.685 0 1.797 3.988.386 8.046.904 12.024.181.875-.16 1.136-.937.963-1.629a42.36 42.36 0 0 1 6.16-.377C4.491-8.508 2.152-6.696 0-4.93m8.985-8.533c-2.91-.186-5.805.012-8.677.445-2.095-2.521-6.679-3.473-9.465-3.808-2.802-.338-5.076.962-7.4 2.359-2.327 1.398-4.171.689-4.824 3.586-.124.549.161 1.318.8 1.41.554.078.938.133 1.289.17C-22.215-4.41-24 1.47-21.541 6.728c-.642.192-1.239.487-1.908.959-.762.541-.858 2.039.291 2.231.78.131 1.536.203 2.296.25-.453 1.222 1.604 2.066 2.177.877.089-.184.16-.354.235-.528C-11.316 12.15 7.153 3.513 2.119-2.778c2.99-2.511 6.292-5.074 8.131-8.48.549-1.018-.148-2.133-1.265-2.205"
    style="fill:#231f20;fill-rule:nonzero" transform="translate(291.858 875.972) scale(4.16667)" />
  <path
    d="M0 32.3c-1.301 1.859-2.377 4.033-3.375 6.183-2.469-4.545-3.836-9.532-5.553-14.4-1.816-5.154-4.605-9.946-7.431-14.597-6.096-10.032-13.274-19.691-22.166-27.404-7.717-6.695-17.075-12.103-27.012-14.605-10.594-2.666-22.488-.777-32.981 1.543-19.475 4.308-36.002 21.481-47.641 36.708-7.013 9.176-13.178 18.931-19.434 28.628-3.355 5.2-6.726 10.395-9.967 15.669-3.257 5.298-4.881 11.361-8.229 16.591-.295.461.427.873.729.426 2.794-4.14 4.403-8.849 6.691-13.262 2.527-4.871 5.994-9.425 9.015-14 6.126-9.274 11.967-18.728 18.444-27.767 11.89-16.593 27.785-34.055 47.873-40.229 10.237-3.145 22.588-4.175 33.135-2.263 11.271 2.045 21.537 9.245 29.816 16.832 8.082 7.406 14.41 16.948 20.039 26.287 2.918 4.846 5.322 9.881 7.109 15.247 1.297 3.89 2.516 7.767 4.348 11.418-2.826-.866-5.793-1.482-8.652-1.375-.723.026-1.119 1.083-.391 1.441 3.664 1.804 7.828 2.294 11.522 4.111.724.357 1.775.25 2.17-.569 1.472-3.064 3.888-6.156 4.554-9.511C2.936 31.78.938 30.961 0 32.3"
    style="fill:#ed1c24;fill-rule:nonzero" transform="translate(1085.28 532.142) scale(4.16667)" />
  <path
    d="M0 7.44a18.045 18.045 0 0 1-.688-1.963c.533.611.946 1.277.688 1.963m.334-4.584c-.452.35-.894.711-1.416.967a.56.56 0 0 0-.263.299c-.236-.096-.518-.08-.7.121-.34.375-.759.582-1.184.781.025-1.486.278-2.955.449-4.434.925.905 1.96 1.7 3.114 2.266m1.673-.814C.108 1.295-.915-.318-2.356-1.634a.885.885 0 0 0-.762-.24c-.369-.081-.816.117-.83.609-.071 2.484-.754 4.891-.567 7.387.033.437.553.89.986.566.505-.381 1.054-.596 1.567-.891a20.805 20.805 0 0 0 1.248 3.2c.192.398.704.369.995.129 1.665-1.372 1.128-3.088.03-4.53.621-.427 1.175-.945 1.862-1.283.598-.293.338-1.074-.166-1.271"
    style="fill:#00aeef;fill-rule:nonzero" transform="translate(209.253 936.605) scale(4.16667)" />
  <path
    d="M0 7.44a18.228 18.228 0 0 1-.688-1.965c.533.613.946 1.279.688 1.965m.334-4.586c-.452.35-.894.713-1.416.969a.552.552 0 0 0-.263.299c-.236-.098-.518-.08-.7.121-.34.375-.759.58-1.184.781.025-1.488.278-2.955.449-4.436.925.907 1.96 1.7 3.114 2.266m1.673-.814C.108 1.295-.915-.318-2.356-1.634a.882.882 0 0 0-.762-.24c-.369-.081-.816.117-.83.607-.071 2.486-.754 4.891-.567 7.387.033.439.553.892.986.566.505-.379 1.054-.596 1.567-.891A20.827 20.827 0 0 0-.714 8.997c.192.398.704.367.995.129 1.665-1.372 1.128-3.088.03-4.53.621-.427 1.175-.947 1.862-1.283.598-.295.338-1.076-.166-1.273"
    style="fill:#00aeef;fill-rule:nonzero" transform="translate(41.543 1144.188) scale(4.16667)" />
  <path d="m-47.53-22.444 58.128.001"
    style="fill:none;fill-rule:nonzero;stroke:#00aeef;stroke-width:1px;stroke-dasharray:4,4"
    transform="scale(-4.16667 4.16667) rotate(50.553 -310.766 106.313)" />
  <path
    d="M0-33.763c-8.311.378-16.581.689-24.876 1.414-4.144.362-8.283.541-12.438.32-3.832-.203-3.59-1.283-2.853-4.38.206-.867.266-1.742.251-2.619 4.281-2.352 10.319-.965 14.934-1.978 8.473-1.861 17.063-3.074 25.64-4.352C.2-41.504.139-37.644 0-33.763m-33.198 44.442c-2.337.354-4.521.973-6.849 1.254-.358-12.497-.511-24.988-2.143-37.399.29.112.616.135.924-.019 2.923-1.449 6.193-1.802 9.42-1.899-1.42 7.071-.517 14.164.415 21.298.567 4.329 1.026 8.638.967 13.01-.037 2.688-.244 3.378-2.734 3.755M1.845-48.197c-9.297 1.465-18.735 3.458-28.072 4.505-4.433.497-10.081-.233-14.39 1.618-.274-.057-.568.041-.657.315a9.824 9.824 0 0 0-1.055.614c-1.446.983-.383 3.189.985 2.913-.227 2.019-.836 3.866-1.751 5.967-.199.456-.068 1.036.478 1.174 2.661.669 5.33 1.02 8.01 1.182-2.888.229-5.746.85-8.008 2.628-.375-.212-1.034.01-.984.534 1.28 13.327.964 26.688 1.071 40.056.005.661.569 1.294 1.259 1.26 3.946-.195 7.709-1.42 11.648-1.652.532-.032 1.177-.372 1.266-.964 2.026-13.485-3.986-26.983-.562-40.339a1.353 1.353 0 0 0-.524-1.425c2.101-.039 4.211-.149 6.332-.298 8.154-.57 16.29-.61 24.454-.925.789-.031 1.355-.613 1.394-1.395.237-4.718.074-9.448.737-14.137.149-1.054-.562-1.8-1.631-1.631"
    style="fill:#58595b;fill-rule:nonzero" transform="translate(1150.505 915) scale(4.16667)" />
  <path
    d="M0 4.226c-.76.103-1.525.168-2.295.192a1.202 1.202 0 0 0-.794.354c-5.754.389-11.478 1.178-17.198 1.914-4.314.555-9.208 1.457-13.841 1.654-.309-.777-1.283-1.125-1.981-.462-.196.186-.394.334-.591.496-.404-.009-.795-.047-1.192-.072-.068-3.702-.145-7.385.134-11.067C-32-4.787-25.067-4.003-19.018-4.897c3.668-.541 7.349-.99 11.016-1.531 2.731-.404 5.52-1.374 8.292-1.423C.181-3.822-.09.197 0 4.226m-33.583 45.73c-2.941.174-5.861.553-8.803.733-.02-1.086.046-2.137.172-3.245.003-.026.016-.042.018-.069l.019-.284c.002-.023-.009-.041-.009-.063.445-10.914-1.517-22.276-3.194-33.075.237.1.516.132.829.059 3.155-.738 5.775-1.275 8.241-2.898.345 6.317.115 12.655.672 18.963.591 6.67 2.155 13.166 2.055 19.879M4.679 26.581c-.108-7.317.145-14.611-.921-21.873-.074-.504-.534-.811-1.013-.893.003-4.327.259-8.646.299-12.974.008-.8-.629-1.285-1.361-1.361-2.543-.265-4.888.409-7.357.975-3.566.816-7.302 1.125-10.977 1.512.147-13.9.348-27.869-.486-41.751-.033-.556-.46-1.099-1.067-1.068-4.16.221-8.362-.037-12.5.457-.459.055-.93.367-.896.895.884 13.634 2.499 27.248 2.864 40.91.01.392.603.393.609 0 .128-8.461-.296-16.886-.853-25.326-.301-4.543-.58-9.087-.778-13.635-.068-1.562 7.524-1.242 10.529-1.172.655 13.67-.052 27.306.043 40.979l-.213.026c-5.827.745-12.376-.056-18.064 1.667-.126-1.001-1.672-1.365-1.838-.239-.046.315-.08.629-.12.944-1.005.437-.889 1.704-.257 2.389-.348 4.077-.307 8.158-.334 12.264a.96.96 0 0 0 .368.778c-1.733.661-3.579.922-5.622 1.335a1.276 1.276 0 0 0-.525.228.885.885 0 0 0-.822-.492c-1.09 0-1.242 1.431-.475 1.857-.006.066-.02.128-.01.199 1.699 11.319 2.204 22.424 2.866 33.798-.37 1.678-.528 3.153-.416 4.91.039.617.498 1.179 1.16 1.16 3.71-.108 7.371-.703 11.08-.827.668-.021 1.155-.522 1.185-1.184.292-6.502-.972-12.835-1.816-19.252-.926-7.036-.482-14.176-.881-21.254 4.565-.149 9.373-1.002 13.633-1.478 7.207-.803 14.422-1.814 21.685-1.836.049 0 .097-.009.146-.015.84 7.06.561 14.22.682 21.315.127 7.419.272 14.829-.042 22.243-1.361.153-2.708.374-4.079.504-3.398.324-2.049-3.416-1.997-5.199.149-4.966.397-9.927.51-14.892.085-3.75-.194-7.271-.652-10.975-.37-3-1.104-6.738-.044-9.651.196-.54-.691-.915-.928-.391-1.384 3.054-.884 6.809-.642 10.042.46 6.201.25 12.243-.127 18.46-.188 3.085-.387 6.168-.55 9.254-.062 1.164-.745 3.033-.059 4.206 1.738 2.965 7.251 1.185 9.771 1.011.7-.049 1.206-.529 1.24-1.241.409-8.445.176-16.889.052-25.339"
    style="fill:#58595b;fill-rule:nonzero" transform="translate(1336.126 748.2) scale(4.16667)" />
  <path
    d="M0 10.02C-.58 5.863-1.04 1.674-1.798-2.455c-.26-1.415-2.657-1.095-2.516.341.035.358.079.714.116 1.071a1.337 1.337 0 0 0-.824-.395c-6.406-.708-12.638.079-19.037.211-1.89.039-5.688-.115-6.288 2.149-.042.16.053.385.236.413 2.608.397 5.994-.31 8.705-.403 5.494-.189 10.912-.448 16.384.255.481.062.819-.119 1.023-.408.307 2.621.67 5.238 1.04 7.85-4.577-.69-8.895.572-13.591.986-4.583.403-9.219.537-13.148 3.194-.432.291-.171 1.081.373.885 4.15-1.495 8.414-1.588 12.775-1.728 5.028-.161 9.897-1.714 14.855-.251C-.583 12.043.138 11.003 0 10.02"
    style="fill:#58595b;fill-rule:nonzero" transform="translate(1485.985 707.009) scale(4.16667)" />
  <path
    d="M0 1.721c-.802-6.479-.324-12.779-.263-19.275.007-.688-.56-1.191-1.219-1.221-2.689-.12-5.292.169-7.955.523-1.584.211-1.628 2.722 0 2.531 2.249-.263 4.456-.601 6.706-.619-.137 5.471-.521 10.867.062 16.34.638 5.986 1.586 11.894 1.402 17.918-3.231.247-4.661.841-5.22-3.485-.437-3.379-.343-6.836-.292-10.233.093-6.336.287-12.601-1.105-18.823-.205-.92-1.577-.524-1.4.387C-7.102-2.987-10.35 8.46-8.063 19.703c.106.523.667.913 1.183.902 2.276-.048 4.543-.211 6.818-.272.706-.018 1.203-.55 1.241-1.24C1.502 13.255.716 7.502 0 1.721"
    style="fill:#58595b;fill-rule:nonzero" transform="translate(1407.314 615.096) scale(4.16667)" />
  <path
    d="m0 23.671 1.635-.337c.513-.106.886-.65.88-1.157-.063-6.026-.115-11.703.99-17.669 1.031-5.569 2.474-11.02 2.681-16.706.022-.611-.584-.976-1.131-.862-2.476.518-4.887.684-7.282 1.517-.607.212-.367 1.1.266.964 1.389-.29 2.789-.44 4.203-.452 2.903-.126 2.027.995 1.582 4.06C3.29-3.291 2.339.338 1.556 3.971.324 9.677.193 15.334.129 21.129l-.519.067c-.39.05-.674.212-.873.427.039-4.578-.756-9.174-.756-13.781.001-5.071.274-10.137.266-15.21-.001-.807-1.232-.805-1.25 0-.208 9.774-1.611 19.485-.492 29.262.122 1.062 1.332 1.356 1.917.791.052.334.228.641.515.833-1.68-.183-3.548-.149-5.493.014-5.215.436-10.196 1.445-15.46 1.069-4.345-.311-8.681-.718-12.776 1.021-.646.275-.182 1.343.476 1.128 5.675-1.86 12.003.276 17.837.179 5.74-.095 21.805-5.001 19.959 5.701a1.31 1.31 0 0 0 .334 1.144 1.369 1.369 0 0 0-.51-.133c-7.462-.479-14.88.637-22.374.124-4.228-.289-8.406-.555-12.641-.283-1.318.084-2.502.311-3.799.536-1.353.235-1.056-6.013-1.147-6.727-.106-.828-1.402-.866-1.328 0 .235 2.768-.327 5.422.147 8.175.081.477.611.652 1.022.581 7.143-1.244 14.197-.29 21.352.29 6.268.508 12.506-.524 18.768-.055 1.293.097 1.595-1.424.917-2.201.67.344 1.565.184 1.746-.765 1.194-6.291-1.58-8.869-5.967-9.645"
    style="fill:#58595b;fill-rule:nonzero" transform="translate(1366.068 385.624) scale(4.16667)" />
  <path
    d="M0-2.083c-4.533-.751-9.589.448-14.145.86-2.638.24-5.262.728-7.877 1.141-4.53.714-4.924.716-5.858-3.559-.063-.293-.534-.227-.521.071.067 1.612.132 3.22.248 4.83.022.315.249.591.586.586C-18.466 1.716-9.432-.407-.295.096.943.165 1.239-1.877 0-2.083"
    style="fill:#58595b;fill-rule:nonzero" transform="translate(1473.389 320.083) scale(4.16667)" />
  <path
    d="M0-5.748c-9.16-1.915-17.973 1.384-26.946 2.864-.276.045-.531.383-.503.659.153 1.549.214 2.012.456 3.55.094.59 1.123.451 1.044-.141-.551-4.108 6.043-3.612 9.177-4.161 5.389-.946 10.697-1.542 16.083-.27C.942-2.861 1.63-5.408 0-5.748"
    style="fill:#58595b;fill-rule:nonzero" transform="translate(1479.514 297.906) scale(4.16667)" />
  <path
    d="M0 1.429c-1.052 3.666-5.564 7.537-9.537 6.657C-14.04 7.089-12.92.943-11.53-1.918c.834-1.716 2.076-3.303 3.655-4.388.052-.036.101-.053.151-.085.06.005.108.026.173.021 1.2-.083 2.393-.139 3.524.051.349.178.701.377 1.062.584.182.104.416.057.572-.071.39.187.771.411 1.132.714C.669-3.477.63-.764 0 1.429M-7.871-8.733c-.218.07-.377.203-.51.355-1.896.961-3.69 2.703-4.649 4.155-2.807 4.246-3.841 12.519 2.311 14.62C-4.988 12.354.692 7.13 2.57 2.138 5.126-4.656-1.106-10.925-7.871-8.733"
    style="fill:#0c9344;fill-rule:nonzero" transform="translate(1118.913 910.863) scale(4.16667)" />
  <path d="M0-1.984C-1.279-1.984-1.279 0 0 0s1.279-1.984 0-1.984" style="fill:#0c9344;fill-rule:nonzero"
    transform="translate(1085.088 924.872) scale(4.16667)" />
  <path d="M0-1.984C-1.279-1.984-1.279 0 0 0s1.279-1.984 0-1.984" style="fill:#0c9344;fill-rule:nonzero"
    transform="translate(1094.555 928.422) scale(4.16667)" />
  <path
    d="M0-.852C-.005-.87-.003-.89-.01-.907c-.163-.412-.519-.577-.948-.495-.235.045-.449.278-.504.504-.101.419.102.699.401.957C-.391.632.443-.168 0-.852"
    style="fill:#0c9344;fill-rule:nonzero" transform="translate(1085.043 897.734) scale(4.16667)" />
  <path d="M0-1.984C-1.279-1.984-1.279 0 0 0s1.279-1.984 0-1.984" style="fill:#0c9344;fill-rule:nonzero"
    transform="translate(1105.21 900.017) scale(4.16667)" />
  <path
    d="M0-27.309c-.965.101-1.275 1.479-.239 1.765 4.913 1.351 8.131 3.568 8.199 9.027.055 4.352-2.02 8.901-5.042 11.965C-.764-.82-5.088-2.252-7.739-6.356c-1.738-2.688-1.071-6.741-.258-9.593.495-1.737 1.409-3.341 2.581-4.705 1.803-2.098 6.95-3.808 7.361.778.038.427.605.416.657 0 .532-4.293-2.725-5.954-6.644-4.609-3.955 1.359-5.993 5.866-6.896 9.602C-12.48-8.489-8.97 1.686-.761.441 12.115-1.513 16.17-28.995 0-27.309"
    style="fill:#0c9344;fill-rule:nonzero" transform="translate(1425.993 969.23) scale(4.16667)" />
  <path
    d="m0-.104-.104-.447c-.292-1.271-2.364-.696-1.943.535l.149.435.01-.004c.025.077.051.153.089.24C-1.335 1.718.238.934 0-.104"
    style="fill:#0c9344;fill-rule:nonzero" transform="translate(1415.089 923.105) scale(4.16667)" />
  <path d="M0-1.984C-1.279-1.984-1.279 0 0 0s1.279-1.984 0-1.984" style="fill:#0c9344;fill-rule:nonzero"
    transform="translate(1420.076 928.422) scale(4.16667)" />
  <path d="m0-.984-.21-.129c-.468-.286-1.081.085-1.081.621S-.678.415-.21.129L0 0a.577.577 0 0 0 0-.984"
    style="fill:#0c9344;fill-rule:nonzero" transform="translate(1409.443 899.117) scale(4.16667)" />
  <path d="M0-1.984C-1.279-1.984-1.279 0 0 0s1.279-1.984 0-1.984" style="fill:#0c9344;fill-rule:nonzero"
    transform="translate(1436.651 897.647) scale(4.16667)" />
  <path
    d="M0 15.529c-2.704-1.361-3.161-5.238-3.039-7.881.075-1.648.653-3.207 1.471-4.619.937-1.618 6.073-4.29 6.392-.372.023.275.44.369.507.068.201-.903.11-1.685-.229-2.306C12.554 3.3 8.131 19.621 0 15.529M.059-1.569c-.352.241-.476.582-.439.902-1.419.514-2.55 1.561-3.539 3.078C-6.61 6.537-6.19 14.477-1.813 17.384c6.116 4.063 12.58-2.227 13.57-8.251C12.724 3.252 6.445-5.918.059-1.569"
    style="fill:#0c9344;fill-rule:nonzero" transform="translate(1321.96 620.842) scale(4.16667)" />
  <path
    d="M0-2.308a.901.901 0 0 0-.904.658.926.926 0 0 0-.8-.413c-.261 0-.501.02-.762.058-.968.14-.968 1.806 0 1.947.261.038.501.058.762.058.521 0 .831-.32.944-.705A.892.892 0 0 0 0-.324c1.279 0 1.279-1.984 0-1.984"
    style="fill:#0c9344;fill-rule:nonzero" transform="translate(1337.218 666.992) scale(4.16667)" />
  <path d="M0-1.734C-1.118-1.734-1.118 0 0 0s1.118-1.734 0-1.734" style="fill:#0c9344;fill-rule:nonzero"
    transform="translate(1321.826 643.809) scale(4.16667)" />
  <path d="M0-2.25C-1.451-2.25-1.451 0 0 0s1.451-2.25 0-2.25" style="fill:#0c9344;fill-rule:nonzero"
    transform="translate(1338.401 643.7) scale(4.16667)" />
  <path
    d="M0 11.762c-3.034.077-6.025-.436-9.049-.021-3.264.448-6.394.579-9.634.302l.005-.018c.119-.572-.267-1.258-.925-1.214-2.545.173-5.001.82-7.549.996-2.834.196-5.795-.847-8.644-1.007-2.16-.122-4.205.353-6.304.789-3.208.667-6.681.202-9.928.129-2.914-.066-5.429-.653-8.557-.267-2.96.367-5.331-.616-8.27.146-2.973.77-5.432.346-8.358 1.769.022-.01-2.495-.806-2.564-.806-2.111 0-3.418 1.262-5.154-.474-1.773-1.773-4.263 1.612-5.656.218-.483-.483-1.326-1.009-2.057-.803-1.312.371-2.777 1.626-2.904 1.196a.8.8 0 0 0-.759-.579c-1.779-.057-5.059 1.075-6.042-.517-.231-.374-.602-.478-1.015-.413-2.477.384-4.491 1.121-7.021 1.172-2.404.048-3.874 1.156-5.281-.947-.312-.464-.866-.756-1.433-.583-1.635.503-6.734-.652-8.303-.88-1.212-.175-1.803-.521-2.896-.882-2.028-.672-4.234-1.048-6.307-.565-.221-1.098-1.033-1.619-2.727-1.285-1.364.27-1.185-1.189-2.274-1.427-1.198-.259-2.098-.063-3.057.43-.071-.22-.144-.438-.228-.654-.148-.422-.619-.806-1.096-.622-1.081.414-4.693 3.412-5.634 2.009-.37-.55-1.232-.783-1.723-.221-1.76 2.011-1.801.705-3.77.697-4.992-.02-9.484 1.96-13.796-1.654-3.595-3.012-5.289-4.614-9.326-2.768-1.187-3.005-4.228-1.205-6.72.395-1.438-1.326-3.874-1.122-5.844-.985-2.57.18-14.59 3.126-15.719.228-.24-.619-.787-1.004-1.469-.835-.935.232-2.099.133-3.004.564-.885.422-2.423-1.907-3.171-2.444-1.37-.982-4.114 2.18-4.598 1.542-1.283-1.69-2.593-2.188-4.705-1.654-2.643.668-3.737.628-6.028-.108-2.093-.672-4.095.12-6.195-.721-.485-.195-1.074.049-1.429.377-1.238 1.144-5.972.394-7.743.807-2.294.535-3.212-1.191-5.521-.656-2.741.637-3.349-.138-5.255-1.527-.197-.144-1.416-.834-1.976-.679-1.086.3-2.375.858-3.387-.048-.357-.319-.698-.778-1.216-.809-3.812-.219-7.252 1.009-11.153.063-1.051-.255-2.109.225-3.049.576-1.792.667-3.86-.096-5.685-.295-.822-.09-1.684.525-2.329.91-1.828 1.09-3.48.779-5.283-.278-1.36-.796-2.541.091-3.558.931-2.926 2.419-5.387-.822-7.936.867-1.136.752-2.616 1.734-3.714.387-.177-.215-.728-.503-1.043-.466-1.389.164-4.165 1.133-5.272.534-.479-.259-1.156-.646-1.724-.489-1.209.332-1.47 2.155-3.332 1.298-.435-.2-1.043-.271-1.493-.147-1.074.295-1.747 1.062-2.965.37-.292-.166-.639-.459-1.009-.357-1.49.41-2.316 1.526-3.964 1.017-.479-.148-1.43-.571-1.993-.416-1.592.438-3.165-.458-4.536-.252-2.099.316-5.71 1.74-8.123.83.311-.19.611-.39.935-.566.643-.349.191-1.485-.505-1.199-.612.251-1.195.544-1.756.865a3.841 3.841 0 0 1-.719-1.215c-.118-.316-.419-.439-.725-.296-.231.11-3.422 1.711-3.367 1.378.046-.282-.163-.529-.461-.46-.274.063-3.087 1.182-3.418.542-.123-.237-.452-.029-.351.205.383.889.159.574.847 1.215a.26.26 0 0 0 .361 0c.947-.314 1.706-.851 2.279-1.613-.052.221.069.383.264.465.364.153 1.232.709 1.653.531.941-.395 1.86-1.498 2.348-.663.104.178.223.337.351.487-3.73 2.465-6.505 6.263-9.985 9.066-.442.355.145 1.115.605.785 3.808-2.725 6.795-6.28 10.639-8.896 1.822.885 4.394.668 6.154.491 1.355-.135 2.294-1.226 3.697-.41.674.393 1.685 1.344 2.568.939 1.803-.828 2.434-.693 4.365-.193 1.339.347 2.383-1.928 3.647-.726.35.333 1.043.594 1.52.463 1.699-.468 3.346-.145 4.833-.554 2.938-.809 7.02-1.955 9.84-.304.881.517 1.573.418 2.47-.107 3.074-1.801 4.598-.607 7.685-.922 1.141-.116 3.379-2.825 4.432-1.841.594.554 2.38 1.583 3.239 1.583 1.262 0 2.308-.884 3.267-1.567 1.231-.877 5.792-.028 7.663-.417 2.862-.595 4.991 1.085 7.691.418 2.795-.69 4.849-.847 7.379.682 1.128.682 3.275-.76 4.423-.221 2.097.984 2.788 2.466 5.225 2.306 1.54-.101 1.432-1.356 3.224.118.273.224.587.459.932.553 2.445.673 3.366-1.304 6.418.484.86.504 2.452.287 3.358.037 1.722-.474 1.935-.618 3.793-.57 2.572.067 4.676.504 7.172.81 1.515.186 4.537-1.604 5.643-.218 2.07 2.595 5.769-.694 6.41.655 1.004 2.12 4.145 1.257 6.123.694 1.923 2.482 6.038 1.549 9.063 1.496 2.117-.038 11.864-2.89 12.804-.589.269.658 1.011 1.134 1.701.692.714-.457 4.144-3.578 4.562-.979.12.749 1.094 1.019 1.681.684 4.41-2.511 5.732-.081 8.716 2.464 2.133 1.821 4.518 2.378 7.257 2.381 1.967.002 3.948-.491 5.904-.66.794-.068 2.406.893 3.369 1.075 1.12.213 2.018-.824 2.716-1.76 2.075 1.473 3.993-.749 6.225-2.096.076.223.151.445.215.673.157.485.774.833 1.244.507.876-.934 1.868-.815 2.976.357.094.356.47.687.857.652.248-.021 2.596-.365 2.492.279-.14.87.601 1.415 1.398 1.074 4.169-1.782 7.008 2.119 10.809 2.474 1.811.17 4.304.74 6.04.586 1.406-.125.708.071 1.251 1.262.162.357.642.602 1.022.586.418-.019 12.554-1.686 12.523-1.808.086.344.46.665.829.631 1.467-.137 5.498-1.387 5.789-.086.104.467.734.739 1.136.463.771-.528 3.65-2.828 4.432-.794.11.285.405.534.733.417 1.192-.423 1.244-.451 2.407-1.032 4.19-2.093 1.717.325 3.087.968 2.047.96 4.866-1.279 6.679.511.148.145.418.248.623.164.995-.406 11.932-3.147 12.791-1.928 1.06 1.503 8.408-.52 10.318-.207 4.183.685 8.55 1.463 12.991.698 4.169-.718 7.329-.282 11.458-.027 3.284.203 6.105-.353 9.268-.65-.061.56.421.975.958 1.036 3.216.363 6.303.291 9.512-.098 3.54-.429 6.841-.154 10.375-.287 1.104-.041 1.11-1.747 0-1.719"
    style="fill:#0ea14b;fill-rule:nonzero" transform="translate(1485.18 923.784) scale(4.16667)" />
  <path
    d="M-4.853-11.632c.912 4.333.601 8.964.984 13.37.056.636-.917.633-.984.009-.468-4.345-.994-8.876-.936-13.248.007-.526.822-.677.936-.131"
    style="fill:#0ea14b;fill-rule:nonzero" transform="scale(-4.16667 4.16667) rotate(-44.361 278.139 124.77)" />
  <path d="M0-1.438C-.927-1.438-.927 0 0 0s.927-1.438 0-1.438" style="fill:#0ea14b;fill-rule:nonzero"
    transform="translate(50.52 1001.863) scale(4.16667)" />
  <path
    d="M0-23.797c-2.882 1.846-5.618 3.923-8.254 6.143-.241-.227-.629-.308-.947-.024-3.552 3.17-6.95 6.49-10.327 9.844-.299.297-.288.656-.127.938-1.996 2.03-3.965 4.07-5.929 6.073-.495.504.269 1.267.773.773A310.89 310.89 0 0 1 .89-22.644c.66-.519-.196-1.597-.89-1.153"
    style="fill:#0ea14b;fill-rule:nonzero" transform="translate(136.572 1043.297) scale(4.16667)" />
  <path
    d="M-10.468-25.483c2.105 9.669 1.986 19.669 1.437 29.501-.051.921-1.48.939-1.437.009.459-9.818.052-19.412-1.375-29.14-.128-.882 1.175-1.287 1.375-.37"
    style="fill:#0ea14b;fill-rule:nonzero" transform="scale(-4.16667 4.16667) rotate(-44.609 304.172 130.922)" />
  <path
    d="M0-40.206a277.09 277.09 0 0 0-23.839 18.517C-30.894-15.562-38.513-8.985-42.977-.635c-.313.585.568 1.103.891.52 4.509-8.133 12.456-14.424 19.44-20.382C-15.041-26.985-7.017-32.943.88-39.065c.652-.505-.205-1.609-.88-1.141"
    style="fill:#0ea14b;fill-rule:nonzero" transform="translate(272.716 1124.718) scale(4.16667)" />
  <path
    d="M0-37.41c-8.347 3.262-15.702 9.22-22.579 14.849-8.203 6.715-15.834 14.105-23.817 21.076-.776.679.354 1.793 1.127 1.127 7.184-6.192 14.125-12.657 21.368-18.781 7.71-6.518 15.96-11.602 24.455-16.957.66-.417.233-1.622-.554-1.314"
    style="fill:#0ea14b;fill-rule:nonzero" transform="translate(319.613 1126.993) scale(4.16667)" />
  <path
    d="M0-48.007c-9.559 6.36-18.304 14.128-27.074 21.515-9.745 8.207-19.316 16.625-28.834 25.093-.777.692.366 1.826 1.138 1.139 9.048-8.051 18.172-16.009 27.451-23.793C-18.065-31.816-8.241-38.966.824-46.94c.579-.509-.182-1.494-.824-1.067"
    style="fill:#0ea14b;fill-rule:nonzero" transform="translate(358.04 1178.693) scale(4.16667)" />
  <path
    d="M0-49.494c-1.487.98-1.241.775-2.499 2.169a.713.713 0 0 0-.182.442c-7.735 7.509-16.4 13.862-24.811 20.611C-37.249-18.443-45.33-8.902-54.7-.663c-.609.536.275 1.398.884.885 9.543-8.052 18.012-17.234 27.773-25.045C-16.76-32.252-6.69-38.888 1.373-47.715c.837-.917-.256-2.514-1.373-1.779"
    style="fill:#0ea14b;fill-rule:nonzero" transform="translate(451.784 1176.155) scale(4.16667)" />
  <path
    d="M0-29.465c-5.872 3.924-11.136 8.937-16.562 13.449L-34.284-1.278c-.778.646.333 1.736 1.104 1.105l16.363-13.393c5.891-4.821 12.323-9.371 17.679-14.782.556-.563-.176-1.575-.862-1.117"
    style="fill:#0ea14b;fill-rule:nonzero" transform="translate(513.042 1097.768) scale(4.16667)" />
  <path
    d="M0-48.388c-3.223 4.295-8.751 7.446-12.828 10.929-4.971 4.246-9.638 8.874-14.279 13.473-4.369 4.331-8.481 8.912-12.517 13.553-2.193 2.524-5.48 8.254-8.671 9.674-.785.35-.222 1.667.584 1.385 2.826-.991 5.183-4.657 7.111-6.821a357.874 357.874 0 0 1 15.212-16.072c5.062-5.017 10.282-9.909 15.738-14.495 3.809-3.201 9.726-5.987 11.663-10.777.508-1.256-1.331-1.757-2.013-.849"
    style="fill:#0ea14b;fill-rule:nonzero" transform="translate(601.721 1157.922) scale(4.16667)" />
  <path
    d="M0-45.789c-9.69 6.029-18.356 13.93-26.719 21.643-8.258 7.616-16.53 15.718-23.4 24.629-.037.048.038.095.078.061 8.594-7.342 16.46-15.58 24.833-23.179 8.451-7.669 17.593-14.384 26.391-21.621.866-.712-.255-2.111-1.183-1.533"
    style="fill:#0ea14b;fill-rule:nonzero" transform="translate(708.98 1176.668) scale(4.16667)" />
  <path
    d="M-24.347-56.538c4.405 21.488 4.937 44.724 2.327 66.456-.178 1.478-2.497 1.425-2.327-.071 2.546-22.371-.298-43.919-2.037-66.186-.092-1.183 1.806-1.327 2.037-.199"
    style="fill:#0ea14b;fill-rule:nonzero" transform="matrix(-2.85357 -3.03616 -3.03616 2.85357 579 1061.26)" />
  <path
    d="M-21.028-47.247c3.115 18.754 2.984 37.972 1.591 56.885-.076 1.025-1.65.936-1.591-.092 1.085-18.907.24-37.6-1.946-56.402-.145-1.251 1.733-1.671 1.946-.391"
    style="fill:#0ea14b;fill-rule:nonzero" transform="scale(-4.16667 4.16667) rotate(-48.295 200.457 316.091)" />
  <path
    d="M-16.75-35.082c1.966 14.275 1.745 28.665 1.802 43.041.005 1.171-1.791.968-1.802-.186-.138-14.215-.075-28.437-1.884-42.564-.156-1.215 1.716-1.513 1.884-.291"
    style="fill:#0ea14b;fill-rule:nonzero" transform="scale(-4.16667 4.16667) rotate(-50.892 161.003 337.273)" />
  <path
    d="M0-40.851C-8.543-36.88-16.088-29.74-23.253-23.738c-4.175 3.496-8.393 6.924-12.366 10.653-1.82 1.708-3.595 3.467-5.374 5.217-2.114 2.08-4.666 5.702-7.54 6.711-.846.297-.508 1.61.373 1.356 3.439-.988 5.984-4.352 8.52-6.713 4.521-4.208 9.12-8.287 13.937-12.153 8.829-7.088 18.05-13.613 26.943-20.577.98-.766-.265-2.06-1.24-1.607"
    style="fill:#0ea14b;fill-rule:nonzero" transform="translate(1123.176 1167.763) scale(4.16667)" />
  <path
    d="M0-30.254C-12.63-20.688-25.366-11.473-37.221-.921c-.705.628.322 1.628 1.028 1.027a356.27 356.27 0 0 1 20.325-16.053c5.693-4.17 12.093-7.695 17.09-12.724.783-.789-.288-2.29-1.222-1.583"
    style="fill:#0ea14b;fill-rule:nonzero" transform="translate(1229.747 1147.338) scale(4.16667)" />
  <path
    d="M-18.404-37.158c2.963 15.26 1.756 31.178 1.709 46.627-.002 1.09-1.696 1.299-1.709.183-.192-15.632-.217-31.041-2.083-46.587-.162-1.358 1.829-1.53 2.083-.223"
    style="fill:#0ea14b;fill-rule:nonzero" transform="scale(-4.16667 4.16667) rotate(-53.594 105.624 403.895)" />
  <path
    d="M0-39.288c-8.266 4.173-15.583 10.97-22.663 16.854-8.16 6.783-15.986 13.964-24.179 20.704-.967.794.412 2.154 1.369 1.369 7.742-6.344 15.464-12.708 23.2-19.059 7.63-6.264 16.091-11.808 23.314-18.518.747-.694-.201-1.774-1.041-1.35"
    style="fill:#0ea14b;fill-rule:nonzero" transform="translate(1440.76 1181.963) scale(4.16667)" />
  <path
    d="M-10.85-24.643c1.193 9.831 1.33 19.796 1.514 29.688.018.987-1.47.883-1.514-.079-.456-9.836-1.347-19.637-1.886-29.465-.059-1.08 1.755-1.215 1.886-.144"
    style="fill:#0ea14b;fill-rule:nonzero" transform="scale(-4.16667 4.16667) rotate(-47.968 133.543 497.34)" />
  <path
    d="M-2.74-7.26c.557 2.656 1.016 5.326 1.536 7.987.193.996-1.289 1.514-1.536.488a142.326 142.326 0 0 1-1.683-7.941c-.198-1.093 1.447-1.661 1.683-.534"
    style="fill:#0ea14b;fill-rule:nonzero" transform="scale(-4.16667 4.16667) rotate(-42.106 185.912 579.922)" />
  <path
    d="M0 8.089c-.629.008-1.351.453-1.468 1.117-.813 4.631-4.976 7.157-9.15 8.485-2.277.724-11.426.908-9.488-3.685.466-1.104-.633-2.845-1.903-1.902-1.497 1.111-2.841 1.885-4.619 2.567-1.534.588-9.37 1.295-8.538-2.173.214-.891-.592-1.814-1.528-1.528-3.284 1.004-7.805 2.047-11.032.403-4.871-2.481 4.014-13.242 7.385-13.329.841-.022.831-1.251 0-1.297-.206-.012-.388.005-.583.005a1.446 1.446 0 0 0-.103-.236c-1.5-2.76 9.157-7.277 10.02-1.999a8.61 8.61 0 0 0 .014 1.458c.174 1.843 2.784 1.884 2.895 0-.42-6.491 8.758-3.98 10.892-.379.789 1.332 2.719.703 2.798-.757.276-5.094 12.942-2.466 14.789.489.606.926 1.704.852 2.36.309C5.453-2.873 7.732-.492 8.774 2.41 10.789 8.026 3.188 8.047 0 8.089m12.005-3.846C12.017-1.765 6.626-6.568 1.26-8.346a1.41 1.41 0 0 0-.527-.069c-4.832-3.168-14.249-4.045-17.225.373-3.718-3.043-10.241-3.948-13.114-.884-4.39-4.425-16.566.887-13.811 6.069-1.91.668-3.271 2.133-4.691 4.206-1.537 2.241-3.795 6.332-2.87 9.191 1.731 5.348 8.613 4.107 13.287 3.158.324 1.848 2.032 3.207 4.089 3.763 3.762 1.016 7.334.349 10.583-1.413.66 3.389 5.213 4.869 9.021 5.069 6.145.323 13.256-4.043 15.167-9.981 4.634-.047 10.825-1.014 10.836-6.893"
    style="fill:#24aae1;fill-rule:nonzero" transform="translate(397.35 94.708) scale(4.16667)" />
  <path
    d="M0 1.251c-1.086.051-1.548 1.071-1.146 1.999 3.219 7.437-17.41 15.509-20.221 6.986-.217-.656-1.006-1.073-1.64-.666-3.935 2.527-8.081 4.211-12.74 4.805-5.075.647-14.078-1.601-9.859-8.545.399-.66-.435-1.607-1.111-1.111-3.179 2.338-12.065 4.908-14.065-.046-1.86-4.604 3.281-12.895 7.185-15.499-1.48 1.765-1.997 3.616-.837 5.054.765.948 2.22-.266 1.644-1.269-1.633-2.843 15.287-13.269 17.788-2.267.215.947 1.418 1.15 2.07.547 3.125-2.893 11.328-7.206 12.701-.546.237 1.155 2.216 1.225 2.394 0 .744-5.126 7.899-2.838 10.098-.262.935 1.096 2.366-.115 2.176-1.266C-5.909-12.928-.485-8.74.032-7.9 1.026-6.286 4.36 1.047 0 1.251M1.912-9.895C.162-12.731-6.393-15.894-7.908-13c-3.48-2.121-8.688-2.751-11.098.149-2.977-4.302-9.89-2.022-14.181 1.113-3.365-8.178-14.794-4.667-19.663.1-.034-.362-.42-.704-.847-.48C-58.89-9.403-64.069.005-61.76 5.822c1.978 4.981 9.266 2.843 13.679 1.168-1.423 3.646.232 7.266 4.606 8.704 6.942 2.281 14.333.047 20.45-3.508 4.381 9.375 26.233 1.541 24.661-8.545 5.384-1.597 2.577-9.806.276-13.536"
    style="fill:#24aae1;fill-rule:nonzero" transform="translate(928.838 108.62) scale(4.16667)" />
</svg>
