<?xml version="1.0" encoding="UTF-8" standalone="no"?>
<!DOCTYPE svg PUBLIC "-//W3C//DTD SVG 1.1//EN" "http://www.w3.org/Graphics/SVG/1.1/DTD/svg11.dtd">
<svg width="100%" height="100%" viewBox="0 0 1500 1200" version="1.1" xmlns="http://www.w3.org/2000/svg" xmlns:xlink="http://www.w3.org/1999/xlink" xml:space="preserve" xmlns:serif="http://www.serif.com/" style="fill-rule:evenodd;clip-rule:evenodd;">
    <g id="Layer-1" serif:id="Layer 1" transform="matrix(4.16667,0,0,4.16667,0,0)">
        <g transform="matrix(1,0,0,1,65.811,205.78)">
            <path d="M0,-2.343C-0.043,-2.351 -0.087,-2.355 -0.131,-2.363C-0.422,-2.73 -0.875,-3.031 -1.212,-3.017C-1.269,-3.015 -1.31,-2.995 -1.36,-2.986C-2.045,-3.031 -2.687,-2.456 -3.072,-1.962C-3.421,-1.515 -3.476,-0.784 -2.881,-0.482C-2.789,-0.435 -2.687,-0.405 -2.588,-0.368C-2.592,-0.3 -2.598,-0.228 -2.601,-0.159C-2.623,0.354 -2.098,0.688 -1.633,0.579C-0.815,0.384 -0.103,-0.251 0.077,-1.025C0.187,-1.245 0.285,-1.47 0.348,-1.73C0.408,-1.976 0.273,-2.294 0,-2.343" style="fill:rgb(35,31,32);fill-rule:nonzero;"/>
        </g>
        <g transform="matrix(0.24,0,0,0.241712,0,0)">
            <rect x="0" y="0" width="1500" height="1191.5" style="fill:white;"/>
        </g>
        <g transform="matrix(1,0,0,1,70.0459,210.233)">
            <path d="M0,-4.93C-0.389,-5.493 -0.823,-6.02 -1.345,-6.496C-2.766,-7.797 -4.564,-5.877 -3.412,-4.43C-2.755,-3.608 -2.196,-2.784 -1.703,-1.856C-1.359,-1.209 -0.655,-1.018 -0.022,-1.182C2.369,2.386 -14.776,9.715 -18.533,8.013C-18.549,8.004 -18.564,7.992 -18.58,7.984C-18.452,7.685 -18.45,7.34 -18.678,7.004C-22.309,1.636 -19.772,-4.869 -16.533,-9.766C-16.153,-10.34 -16.505,-10.985 -17.048,-11.231C-16.964,-11.246 -16.879,-11.262 -16.798,-11.284C-14.383,-11.95 -12.791,-14.098 -10.136,-14.33C-7.431,-14.567 -4.492,-13.875 -2,-12.563C-2.52,-12.282 -2.652,-11.711 -2.494,-11.188C-5.91,-10.516 -9.429,-10.893 -12.89,-10.623C-14.054,-10.532 -14.039,-8.938 -12.89,-8.826C-8.902,-8.44 -4.844,-7.922 -0.866,-8.645C0.009,-8.805 0.27,-9.582 0.097,-10.274C2.145,-10.547 4.198,-10.678 6.257,-10.651C4.491,-8.508 2.152,-6.696 0,-4.93M8.985,-13.463C6.075,-13.649 3.18,-13.451 0.308,-13.018C-1.787,-15.539 -6.371,-16.491 -9.157,-16.826C-11.959,-17.164 -14.233,-15.864 -16.557,-14.467C-18.884,-13.069 -20.728,-13.778 -21.381,-10.881C-21.505,-10.332 -21.22,-9.563 -20.581,-9.471C-20.027,-9.393 -19.643,-9.338 -19.292,-9.301C-22.215,-4.41 -24,1.47 -21.541,6.728C-22.183,6.92 -22.78,7.215 -23.449,7.687C-24.211,8.228 -24.307,9.726 -23.158,9.918C-22.378,10.049 -21.622,10.121 -20.862,10.168C-21.315,11.39 -19.258,12.234 -18.685,11.045C-18.596,10.861 -18.525,10.691 -18.45,10.517C-11.316,12.15 7.153,3.513 2.119,-2.778C5.109,-5.289 8.411,-7.852 10.25,-11.258C10.799,-12.276 10.102,-13.391 8.985,-13.463" style="fill:rgb(35,31,32);fill-rule:nonzero;"/>
        </g>
        <g transform="matrix(1,0,0,1,260.467,127.714)">
            <path d="M0,32.3C-1.301,34.159 -2.377,36.333 -3.375,38.483C-5.844,33.938 -7.211,28.951 -8.928,24.083C-10.744,18.929 -13.533,14.137 -16.359,9.486C-22.455,-0.546 -29.633,-10.205 -38.525,-17.918C-46.242,-24.613 -55.6,-30.021 -65.537,-32.523C-76.131,-35.189 -88.025,-33.3 -98.518,-30.98C-117.993,-26.672 -134.52,-9.499 -146.159,5.728C-153.172,14.904 -159.337,24.659 -165.593,34.356C-168.948,39.556 -172.319,44.751 -175.56,50.025C-178.817,55.323 -180.441,61.386 -183.789,66.616C-184.084,67.077 -183.362,67.489 -183.06,67.042C-180.266,62.902 -178.657,58.193 -176.369,53.78C-173.842,48.909 -170.375,44.355 -167.354,39.78C-161.228,30.506 -155.387,21.052 -148.91,12.013C-137.02,-4.58 -121.125,-22.042 -101.037,-28.216C-90.8,-31.361 -78.449,-32.391 -67.902,-30.479C-56.631,-28.434 -46.365,-21.234 -38.086,-13.647C-30.004,-6.241 -23.676,3.301 -18.047,12.64C-15.129,17.486 -12.725,22.521 -10.938,27.887C-9.641,31.777 -8.422,35.654 -6.59,39.305C-9.416,38.439 -12.383,37.823 -15.242,37.93C-15.965,37.956 -16.361,39.013 -15.633,39.371C-11.969,41.175 -7.805,41.665 -4.111,43.482C-3.387,43.839 -2.336,43.732 -1.941,42.913C-0.469,39.849 1.947,36.757 2.613,33.402C2.936,31.78 0.938,30.961 0,32.3" style="fill:rgb(237,28,36);fill-rule:nonzero;"/>
        </g>
        <g transform="matrix(1,0,0,1,50.2207,224.785)">
            <path d="M0,7.44C-0.267,6.799 -0.497,6.143 -0.688,5.477C-0.155,6.088 0.258,6.754 0,7.44M0.334,2.856C-0.118,3.206 -0.56,3.567 -1.082,3.823C-1.215,3.889 -1.292,3.999 -1.345,4.122C-1.581,4.026 -1.863,4.042 -2.045,4.243C-2.385,4.618 -2.804,4.825 -3.229,5.024C-3.204,3.538 -2.951,2.069 -2.78,0.59C-1.855,1.495 -0.82,2.29 0.334,2.856M2.007,2.042C0.108,1.295 -0.915,-0.318 -2.356,-1.634C-2.603,-1.859 -2.871,-1.914 -3.118,-1.874C-3.487,-1.955 -3.934,-1.757 -3.948,-1.265C-4.019,1.219 -4.702,3.626 -4.515,6.122C-4.482,6.559 -3.962,7.012 -3.529,6.688C-3.024,6.307 -2.475,6.092 -1.962,5.797C-1.639,6.899 -1.218,7.952 -0.714,8.997C-0.522,9.395 -0.01,9.366 0.281,9.126C1.946,7.754 1.409,6.038 0.311,4.596C0.932,4.169 1.486,3.651 2.173,3.313C2.771,3.02 2.511,2.239 2.007,2.042" style="fill:rgb(0,174,239);fill-rule:nonzero;"/>
        </g>
        <g transform="matrix(1,0,0,1,9.9702,274.605)">
            <path d="M0,7.44C-0.267,6.797 -0.497,6.141 -0.688,5.475C-0.155,6.088 0.258,6.754 0,7.44M0.334,2.854C-0.118,3.204 -0.56,3.567 -1.082,3.823C-1.215,3.887 -1.292,3.999 -1.345,4.122C-1.581,4.024 -1.863,4.042 -2.045,4.243C-2.385,4.618 -2.804,4.823 -3.229,5.024C-3.204,3.536 -2.951,2.069 -2.78,0.588C-1.855,1.495 -0.82,2.288 0.334,2.854M2.007,2.04C0.108,1.295 -0.915,-0.318 -2.356,-1.634C-2.603,-1.859 -2.871,-1.915 -3.118,-1.874C-3.487,-1.955 -3.934,-1.757 -3.948,-1.267C-4.019,1.219 -4.702,3.624 -4.515,6.12C-4.482,6.559 -3.962,7.012 -3.529,6.686C-3.024,6.307 -2.475,6.09 -1.962,5.795C-1.639,6.897 -1.218,7.952 -0.714,8.997C-0.522,9.395 -0.01,9.364 0.281,9.126C1.946,7.754 1.409,6.038 0.311,4.596C0.932,4.169 1.486,3.649 2.173,3.313C2.771,3.018 2.511,2.237 2.007,2.04" style="fill:rgb(0,174,239);fill-rule:nonzero;"/>
        </g>
        <g transform="matrix(-0.635361,0.772215,0.772215,0.635361,31.2205,278.744)">
            <path d="M-47.53,-22.444L10.598,-22.443" style="fill:none;fill-rule:nonzero;stroke:rgb(0,174,239);stroke-width:1px;stroke-dasharray:4,4;"/>
        </g>
        <g transform="matrix(1,0,0,1,276.121,219.6)">
            <path d="M0,-33.763C-8.311,-33.385 -16.581,-33.074 -24.876,-32.349C-29.02,-31.987 -33.159,-31.808 -37.314,-32.029C-41.146,-32.232 -40.904,-33.312 -40.167,-36.409C-39.961,-37.276 -39.901,-38.151 -39.916,-39.028C-35.635,-41.38 -29.597,-39.993 -24.982,-41.006C-16.509,-42.867 -7.919,-44.08 0.658,-45.358C0.2,-41.504 0.139,-37.644 0,-33.763M-33.198,10.679C-35.535,11.033 -37.719,11.652 -40.047,11.933C-40.405,-0.564 -40.558,-13.055 -42.19,-25.466C-41.9,-25.354 -41.574,-25.331 -41.266,-25.485C-38.343,-26.934 -35.073,-27.287 -31.846,-27.384C-33.266,-20.313 -32.363,-13.22 -31.431,-6.086C-30.864,-1.757 -30.405,2.552 -30.464,6.924C-30.501,9.612 -30.708,10.302 -33.198,10.679M1.845,-48.197C-7.452,-46.732 -16.89,-44.739 -26.227,-43.692C-30.66,-43.195 -36.308,-43.925 -40.617,-42.074C-40.891,-42.131 -41.185,-42.033 -41.274,-41.759C-41.637,-41.574 -41.991,-41.374 -42.329,-41.145C-43.775,-40.162 -42.712,-37.956 -41.344,-38.232C-41.571,-36.213 -42.18,-34.366 -43.095,-32.265C-43.294,-31.809 -43.163,-31.229 -42.617,-31.091C-39.956,-30.422 -37.287,-30.071 -34.607,-29.909C-37.495,-29.68 -40.353,-29.059 -42.615,-27.281C-42.99,-27.493 -43.649,-27.271 -43.599,-26.747C-42.319,-13.42 -42.635,-0.059 -42.528,13.309C-42.523,13.97 -41.959,14.603 -41.269,14.569C-37.323,14.374 -33.56,13.149 -29.621,12.917C-29.089,12.885 -28.444,12.545 -28.355,11.953C-26.329,-1.532 -32.341,-15.03 -28.917,-28.386C-28.775,-28.94 -29.011,-29.501 -29.441,-29.811C-27.34,-29.85 -25.23,-29.96 -23.109,-30.109C-14.955,-30.679 -6.819,-30.719 1.345,-31.034C2.134,-31.065 2.7,-31.647 2.739,-32.429C2.976,-37.147 2.813,-41.877 3.476,-46.566C3.625,-47.62 2.914,-48.366 1.845,-48.197" style="fill:rgb(88,89,91);fill-rule:nonzero;"/>
        </g>
        <g transform="matrix(1,0,0,1,320.67,179.568)">
            <path d="M0,4.226C-0.76,4.329 -1.525,4.394 -2.295,4.418C-2.641,4.441 -2.897,4.581 -3.089,4.772C-8.843,5.161 -14.567,5.95 -20.287,6.686C-24.601,7.241 -29.495,8.143 -34.128,8.34C-34.437,7.563 -35.411,7.215 -36.109,7.878C-36.305,8.064 -36.503,8.212 -36.7,8.374C-37.104,8.365 -37.495,8.327 -37.892,8.302C-37.96,4.6 -38.037,0.917 -37.758,-2.765C-32,-4.787 -25.067,-4.003 -19.018,-4.897C-15.35,-5.438 -11.669,-5.887 -8.002,-6.428C-5.271,-6.832 -2.482,-7.802 0.29,-7.851C0.181,-3.822 -0.09,0.197 0,4.226M-33.583,49.956C-36.524,50.13 -39.444,50.509 -42.386,50.689C-42.406,49.603 -42.34,48.552 -42.214,47.444C-42.211,47.418 -42.198,47.402 -42.196,47.375C-42.189,47.281 -42.184,47.186 -42.177,47.091C-42.175,47.068 -42.186,47.05 -42.186,47.028C-41.741,36.114 -43.703,24.752 -45.38,13.953C-45.143,14.053 -44.864,14.085 -44.551,14.012C-41.396,13.274 -38.776,12.737 -36.31,11.114C-35.965,17.431 -36.195,23.769 -35.638,30.077C-35.047,36.747 -33.483,43.243 -33.583,49.956M4.679,26.581C4.571,19.264 4.824,11.97 3.758,4.708C3.684,4.204 3.224,3.897 2.745,3.815C2.748,-0.512 3.004,-4.831 3.044,-9.159C3.052,-9.959 2.415,-10.444 1.683,-10.52C-0.86,-10.785 -3.205,-10.111 -5.674,-9.545C-9.24,-8.729 -12.976,-8.42 -16.651,-8.033C-16.504,-21.933 -16.303,-35.902 -17.137,-49.784C-17.17,-50.34 -17.597,-50.883 -18.204,-50.852C-22.364,-50.631 -26.566,-50.889 -30.704,-50.395C-31.163,-50.34 -31.634,-50.028 -31.6,-49.5C-30.716,-35.866 -29.101,-22.252 -28.736,-8.59C-28.726,-8.198 -28.133,-8.197 -28.127,-8.59C-27.999,-17.051 -28.423,-25.476 -28.98,-33.916C-29.281,-38.459 -29.56,-43.003 -29.758,-47.551C-29.826,-49.113 -22.234,-48.793 -19.229,-48.723C-18.574,-35.053 -19.281,-21.417 -19.186,-7.744C-19.257,-7.735 -19.328,-7.727 -19.399,-7.718C-25.226,-6.973 -31.775,-7.774 -37.463,-6.051C-37.589,-7.052 -39.135,-7.416 -39.301,-6.29C-39.347,-5.975 -39.381,-5.661 -39.421,-5.346C-40.426,-4.909 -40.31,-3.642 -39.678,-2.957C-40.026,1.12 -39.985,5.201 -40.012,9.307C-40.014,9.65 -39.865,9.905 -39.644,10.085C-41.377,10.746 -43.223,11.007 -45.266,11.42C-45.478,11.463 -45.651,11.542 -45.791,11.648C-45.938,11.37 -46.202,11.156 -46.613,11.156C-47.703,11.156 -47.855,12.587 -47.088,13.013C-47.094,13.079 -47.108,13.141 -47.098,13.212C-45.399,24.531 -44.894,35.636 -44.232,47.01C-44.602,48.688 -44.76,50.163 -44.648,51.92C-44.609,52.537 -44.15,53.099 -43.488,53.08C-39.778,52.972 -36.117,52.377 -32.408,52.253C-31.74,52.232 -31.253,51.731 -31.223,51.069C-30.931,44.567 -32.195,38.234 -33.039,31.817C-33.965,24.781 -33.521,17.641 -33.92,10.563C-29.355,10.414 -24.547,9.561 -20.287,9.085C-13.08,8.282 -5.865,7.271 1.398,7.249C1.447,7.249 1.495,7.24 1.544,7.234C2.384,14.294 2.105,21.454 2.226,28.549C2.353,35.968 2.498,43.378 2.184,50.792C0.823,50.945 -0.524,51.166 -1.895,51.296C-5.293,51.62 -3.944,47.88 -3.892,46.097C-3.743,41.131 -3.495,36.17 -3.382,31.205C-3.297,27.455 -3.576,23.934 -4.034,20.23C-4.404,17.23 -5.138,13.492 -4.078,10.579C-3.882,10.039 -4.769,9.664 -5.006,10.188C-6.39,13.242 -5.89,16.997 -5.648,20.23C-5.188,26.431 -5.398,32.473 -5.775,38.69C-5.963,41.775 -6.162,44.858 -6.325,47.944C-6.387,49.108 -7.07,50.977 -6.384,52.15C-4.646,55.115 0.867,53.335 3.387,53.161C4.087,53.112 4.593,52.632 4.627,51.92C5.036,43.475 4.803,35.031 4.679,26.581" style="fill:rgb(88,89,91);fill-rule:nonzero;"/>
        </g>
        <g transform="matrix(1,0,0,1,356.636,169.682)">
            <path d="M0,10.02C-0.58,5.863 -1.04,1.674 -1.798,-2.455C-2.058,-3.87 -4.455,-3.55 -4.314,-2.114C-4.279,-1.756 -4.235,-1.4 -4.198,-1.043C-4.4,-1.249 -4.673,-1.399 -5.022,-1.438C-11.428,-2.146 -17.66,-1.359 -24.059,-1.227C-25.949,-1.188 -29.747,-1.342 -30.347,0.922C-30.389,1.082 -30.294,1.307 -30.111,1.335C-27.503,1.732 -24.117,1.025 -21.406,0.932C-15.912,0.743 -10.494,0.484 -5.022,1.187C-4.541,1.249 -4.203,1.068 -3.999,0.779C-3.692,3.4 -3.329,6.017 -2.959,8.629C-7.536,7.939 -11.854,9.201 -16.55,9.615C-21.133,10.018 -25.769,10.152 -29.698,12.809C-30.13,13.1 -29.869,13.89 -29.325,13.694C-25.175,12.199 -20.911,12.106 -16.55,11.966C-11.522,11.805 -6.653,10.252 -1.695,11.715C-0.583,12.043 0.138,11.003 0,10.02" style="fill:rgb(88,89,91);fill-rule:nonzero;"/>
        </g>
        <g transform="matrix(1,0,0,1,337.755,147.623)">
            <path d="M0,1.721C-0.802,-4.758 -0.324,-11.058 -0.263,-17.554C-0.256,-18.242 -0.823,-18.745 -1.482,-18.775C-4.171,-18.895 -6.774,-18.606 -9.437,-18.252C-11.021,-18.041 -11.065,-15.53 -9.437,-15.721C-7.188,-15.984 -4.981,-16.322 -2.731,-16.34C-2.868,-10.869 -3.252,-5.473 -2.669,0C-2.031,5.986 -1.083,11.894 -1.267,17.918C-4.498,18.165 -5.928,18.759 -6.487,14.433C-6.924,11.054 -6.83,7.597 -6.779,4.2C-6.686,-2.136 -6.492,-8.401 -7.884,-14.623C-8.089,-15.543 -9.461,-15.147 -9.284,-14.236C-7.102,-2.987 -10.35,8.46 -8.063,19.703C-7.957,20.226 -7.396,20.616 -6.88,20.605C-4.604,20.557 -2.337,20.394 -0.062,20.333C0.644,20.315 1.141,19.783 1.179,19.093C1.502,13.255 0.716,7.502 0,1.721" style="fill:rgb(88,89,91);fill-rule:nonzero;"/>
        </g>
        <g transform="matrix(1,0,0,1,327.856,92.5497)">
            <path d="M0,23.671L1.635,23.334C2.148,23.228 2.521,22.684 2.515,22.177C2.452,16.151 2.4,10.474 3.505,4.508C4.536,-1.061 5.979,-6.512 6.186,-12.198C6.208,-12.809 5.602,-13.174 5.055,-13.06C2.579,-12.542 0.168,-12.376 -2.227,-11.543C-2.834,-11.331 -2.594,-10.443 -1.961,-10.579C-0.572,-10.869 0.828,-11.019 2.242,-11.031C5.145,-11.157 4.269,-10.036 3.824,-6.971C3.29,-3.291 2.339,0.338 1.556,3.971C0.324,9.677 0.193,15.334 0.129,21.129C-0.044,21.151 -0.217,21.174 -0.39,21.196C-0.78,21.246 -1.064,21.408 -1.263,21.623C-1.224,17.045 -2.019,12.449 -2.019,7.842C-2.018,2.771 -1.745,-2.295 -1.753,-7.368C-1.754,-8.175 -2.985,-8.173 -3.003,-7.368C-3.211,2.406 -4.614,12.117 -3.495,21.894C-3.373,22.956 -2.163,23.25 -1.578,22.685C-1.526,23.019 -1.35,23.326 -1.063,23.518C-2.743,23.335 -4.611,23.369 -6.556,23.532C-11.771,23.968 -16.752,24.977 -22.016,24.601C-26.361,24.29 -30.697,23.883 -34.792,25.622C-35.438,25.897 -34.974,26.965 -34.316,26.75C-28.641,24.89 -22.313,27.026 -16.479,26.929C-10.739,26.834 5.326,21.928 3.48,32.63C3.399,33.102 3.553,33.492 3.814,33.774C3.665,33.703 3.497,33.653 3.304,33.641C-4.158,33.162 -11.576,34.278 -19.07,33.765C-23.298,33.476 -27.476,33.21 -31.711,33.482C-33.029,33.566 -34.213,33.793 -35.51,34.018C-36.863,34.253 -36.566,28.005 -36.657,27.291C-36.763,26.463 -38.059,26.425 -37.985,27.291C-37.75,30.059 -38.312,32.713 -37.838,35.466C-37.757,35.943 -37.227,36.118 -36.816,36.047C-29.673,34.803 -22.619,35.757 -15.464,36.337C-9.196,36.845 -2.958,35.813 3.304,36.282C4.597,36.379 4.899,34.858 4.221,34.081C4.891,34.425 5.786,34.265 5.967,33.316C7.161,27.025 4.387,24.447 0,23.671" style="fill:rgb(88,89,91);fill-rule:nonzero;"/>
        </g>
        <g transform="matrix(1,0,0,1,353.613,76.8198)">
            <path d="M0,-2.083C-4.533,-2.834 -9.589,-1.635 -14.145,-1.223C-16.783,-0.983 -19.407,-0.495 -22.022,-0.082C-26.552,0.632 -26.946,0.634 -27.88,-3.641C-27.943,-3.934 -28.414,-3.868 -28.401,-3.57C-28.334,-1.958 -28.269,-0.35 -28.153,1.26C-28.131,1.575 -27.904,1.851 -27.567,1.846C-18.466,1.716 -9.432,-0.407 -0.295,0.096C0.943,0.165 1.239,-1.877 0,-2.083" style="fill:rgb(88,89,91);fill-rule:nonzero;"/>
        </g>
        <g transform="matrix(1,0,0,1,355.083,71.4975)">
            <path d="M0,-5.748C-9.16,-7.663 -17.973,-4.364 -26.946,-2.884C-27.222,-2.839 -27.477,-2.501 -27.449,-2.225C-27.296,-0.676 -27.235,-0.213 -26.993,1.325C-26.899,1.915 -25.87,1.776 -25.949,1.184C-26.5,-2.924 -19.906,-2.428 -16.772,-2.977C-11.383,-3.923 -6.075,-4.519 -0.689,-3.247C0.942,-2.861 1.63,-5.408 0,-5.748" style="fill:rgb(88,89,91);fill-rule:nonzero;"/>
        </g>
        <g transform="matrix(1,0,0,1,268.539,218.607)">
            <path d="M0,1.429C-1.052,5.095 -5.564,8.966 -9.537,8.086C-14.04,7.089 -12.92,0.943 -11.53,-1.918C-10.696,-3.634 -9.454,-5.221 -7.875,-6.306C-7.823,-6.342 -7.774,-6.359 -7.724,-6.391C-7.664,-6.386 -7.616,-6.365 -7.551,-6.37C-6.351,-6.453 -5.158,-6.509 -4.027,-6.319C-3.678,-6.141 -3.326,-5.942 -2.965,-5.735C-2.783,-5.631 -2.549,-5.678 -2.393,-5.806C-2.003,-5.619 -1.622,-5.395 -1.261,-5.092C0.669,-3.477 0.63,-0.764 0,1.429M-7.871,-8.733C-8.089,-8.663 -8.248,-8.53 -8.381,-8.378C-10.277,-7.417 -12.071,-5.675 -13.03,-4.223C-15.837,0.023 -16.871,8.296 -10.719,10.397C-4.988,12.354 0.692,7.13 2.57,2.138C5.126,-4.656 -1.106,-10.925 -7.871,-8.733" style="fill:rgb(12,147,68);fill-rule:nonzero;"/>
        </g>
        <g transform="matrix(1,0,0,1,260.421,221.969)">
            <path d="M0,-1.984C-1.279,-1.984 -1.279,0 0,0C1.279,0 1.279,-1.984 0,-1.984" style="fill:rgb(12,147,68);fill-rule:nonzero;"/>
        </g>
        <g transform="matrix(1,0,0,1,262.693,222.821)">
            <path d="M0,-1.984C-1.279,-1.984 -1.279,0 0,0C1.279,0 1.279,-1.984 0,-1.984" style="fill:rgb(12,147,68);fill-rule:nonzero;"/>
        </g>
        <g transform="matrix(1,0,0,1,260.41,215.456)">
            <path d="M0,-0.852C-0.005,-0.87 -0.003,-0.89 -0.01,-0.907C-0.173,-1.319 -0.529,-1.484 -0.958,-1.402C-1.193,-1.357 -1.407,-1.124 -1.462,-0.898C-1.563,-0.479 -1.36,-0.199 -1.061,0.059C-0.391,0.632 0.443,-0.168 0,-0.852" style="fill:rgb(12,147,68);fill-rule:nonzero;"/>
        </g>
        <g transform="matrix(1,0,0,1,265.25,216.004)">
            <path d="M0,-1.984C-1.279,-1.984 -1.279,0 0,0C1.279,0 1.279,-1.984 0,-1.984" style="fill:rgb(12,147,68);fill-rule:nonzero;"/>
        </g>
        <g transform="matrix(1,0,0,1,342.238,232.615)">
            <path d="M0,-27.309C-0.965,-27.208 -1.275,-25.83 -0.239,-25.544C4.674,-24.193 7.892,-21.976 7.96,-16.517C8.015,-12.165 5.94,-7.616 2.918,-4.552C-0.764,-0.82 -5.088,-2.252 -7.739,-6.356C-9.477,-9.044 -8.81,-13.097 -7.997,-15.949C-7.502,-17.686 -6.588,-19.29 -5.416,-20.654C-3.613,-22.752 1.534,-24.462 1.945,-19.876C1.983,-19.449 2.55,-19.46 2.602,-19.876C3.134,-24.169 -0.123,-25.83 -4.042,-24.485C-7.997,-23.126 -10.035,-18.619 -10.938,-14.883C-12.48,-8.489 -8.97,1.686 -0.761,0.441C12.115,-1.513 16.17,-28.995 0,-27.309" style="fill:rgb(12,147,68);fill-rule:nonzero;"/>
        </g>
        <g transform="matrix(1,0,0,1,339.621,221.545)">
            <path d="M0,-0.104C-0.035,-0.253 -0.069,-0.402 -0.104,-0.551C-0.396,-1.822 -2.468,-1.247 -2.047,-0.016C-1.997,0.129 -1.948,0.275 -1.898,0.419C-1.895,0.417 -1.892,0.417 -1.888,0.415C-1.863,0.492 -1.837,0.568 -1.799,0.655C-1.335,1.718 0.238,0.934 0,-0.104" style="fill:rgb(12,147,68);fill-rule:nonzero;"/>
        </g>
        <g transform="matrix(1,0,0,1,340.818,222.821)">
            <path d="M0,-1.984C-1.279,-1.984 -1.279,0 0,0C1.279,0 1.279,-1.984 0,-1.984" style="fill:rgb(12,147,68);fill-rule:nonzero;"/>
        </g>
        <g transform="matrix(1,0,0,1,338.266,215.788)">
            <path d="M0,-0.984C-0.07,-1.027 -0.14,-1.07 -0.21,-1.113C-0.678,-1.399 -1.291,-1.028 -1.291,-0.492C-1.291,0.044 -0.678,0.415 -0.21,0.129C-0.14,0.086 -0.07,0.043 0,0C0.368,-0.225 0.368,-0.758 0,-0.984" style="fill:rgb(12,147,68);fill-rule:nonzero;"/>
        </g>
        <g transform="matrix(1,0,0,1,344.796,215.435)">
            <path d="M0,-1.984C-1.279,-1.984 -1.279,0 0,0C1.279,0 1.279,-1.984 0,-1.984" style="fill:rgb(12,147,68);fill-rule:nonzero;"/>
        </g>
        <g transform="matrix(1,0,0,1,317.27,149.002)">
            <path d="M0,15.529C-2.704,14.168 -3.161,10.291 -3.039,7.648C-2.964,6 -2.386,4.441 -1.568,3.029C-0.631,1.411 4.505,-1.261 4.824,2.657C4.847,2.932 5.264,3.026 5.331,2.725C5.532,1.822 5.441,1.04 5.102,0.419C12.554,3.3 8.131,19.621 0,15.529M0.059,-1.569C-0.293,-1.328 -0.417,-0.987 -0.38,-0.667C-1.799,-0.153 -2.93,0.894 -3.919,2.411C-6.61,6.537 -6.19,14.477 -1.813,17.384C4.303,21.447 10.767,15.157 11.757,9.133C12.724,3.252 6.445,-5.918 0.059,-1.569" style="fill:rgb(12,147,68);fill-rule:nonzero;"/>
        </g>
        <g transform="matrix(1,0,0,1,320.932,160.078)">
            <path d="M0,-2.308C-0.493,-2.308 -0.791,-2.012 -0.904,-1.65C-1.067,-1.888 -1.326,-2.063 -1.704,-2.063C-1.965,-2.063 -2.205,-2.043 -2.466,-2.005C-3.434,-1.865 -3.434,-0.199 -2.466,-0.058C-2.205,-0.02 -1.965,0 -1.704,0C-1.183,0 -0.873,-0.32 -0.76,-0.705C-0.603,-0.484 -0.355,-0.324 0,-0.324C1.279,-0.324 1.279,-2.308 0,-2.308" style="fill:rgb(12,147,68);fill-rule:nonzero;"/>
        </g>
        <g transform="matrix(1,0,0,1,317.238,154.514)">
            <path d="M0,-1.734C-1.118,-1.734 -1.118,0 0,0C1.118,0 1.118,-1.734 0,-1.734" style="fill:rgb(12,147,68);fill-rule:nonzero;"/>
        </g>
        <g transform="matrix(1,0,0,1,321.216,154.488)">
            <path d="M0,-2.25C-1.451,-2.25 -1.451,0 0,0C1.451,0 1.451,-2.25 0,-2.25" style="fill:rgb(12,147,68);fill-rule:nonzero;"/>
        </g>
        <g transform="matrix(1,0,0,1,356.443,221.708)">
            <path d="M0,11.762C-3.034,11.839 -6.025,11.326 -9.049,11.741C-12.313,12.189 -15.443,12.32 -18.683,12.043C-18.682,12.037 -18.679,12.032 -18.678,12.025C-18.559,11.453 -18.945,10.767 -19.603,10.811C-22.148,10.984 -24.604,11.631 -27.152,11.807C-29.986,12.003 -32.947,10.96 -35.796,10.8C-37.956,10.678 -40.001,11.153 -42.1,11.589C-45.308,12.256 -48.781,11.791 -52.028,11.718C-54.942,11.652 -57.457,11.065 -60.585,11.451C-63.545,11.818 -65.916,10.835 -68.855,11.597C-71.828,12.367 -74.287,11.943 -77.213,13.366C-77.191,13.356 -79.708,12.56 -79.777,12.56C-81.888,12.56 -83.195,13.822 -84.931,12.086C-86.704,10.313 -89.194,13.698 -90.587,12.304C-91.07,11.821 -91.913,11.295 -92.644,11.501C-93.956,11.872 -95.421,13.127 -95.548,12.697C-95.649,12.351 -95.95,12.13 -96.307,12.118C-98.086,12.061 -101.366,13.193 -102.349,11.601C-102.58,11.227 -102.951,11.123 -103.364,11.188C-105.841,11.572 -107.855,12.309 -110.385,12.36C-112.789,12.408 -114.259,13.516 -115.666,11.413C-115.978,10.949 -116.532,10.657 -117.099,10.83C-118.734,11.333 -123.833,10.178 -125.402,9.95C-126.614,9.775 -127.205,9.429 -128.298,9.068C-130.326,8.396 -132.532,8.02 -134.605,8.503C-134.826,7.405 -135.638,6.884 -137.332,7.218C-138.696,7.488 -138.517,6.029 -139.606,5.791C-140.804,5.532 -141.704,5.728 -142.663,6.221C-142.734,6.001 -142.807,5.783 -142.891,5.567C-143.039,5.145 -143.51,4.761 -143.987,4.945C-145.068,5.359 -148.68,8.357 -149.621,6.954C-149.991,6.404 -150.853,6.171 -151.344,6.733C-153.104,8.744 -153.145,7.438 -155.114,7.43C-160.106,7.41 -164.598,9.39 -168.91,5.776C-172.505,2.764 -174.199,1.162 -178.236,3.008C-179.423,0.003 -182.464,1.803 -184.956,3.403C-186.394,2.077 -188.83,2.281 -190.8,2.418C-193.37,2.598 -205.39,5.544 -206.519,2.646C-206.759,2.027 -207.306,1.642 -207.988,1.811C-208.923,2.043 -210.087,1.944 -210.992,2.375C-211.877,2.797 -213.415,0.468 -214.163,-0.069C-215.533,-1.051 -218.277,2.111 -218.761,1.473C-220.044,-0.217 -221.354,-0.715 -223.466,-0.181C-226.109,0.487 -227.203,0.447 -229.494,-0.289C-231.587,-0.961 -233.589,-0.169 -235.689,-1.01C-236.174,-1.205 -236.763,-0.961 -237.118,-0.633C-238.356,0.511 -243.09,-0.239 -244.861,0.174C-247.155,0.709 -248.073,-1.017 -250.382,-0.482C-253.123,0.155 -253.731,-0.62 -255.637,-2.009C-255.834,-2.153 -257.053,-2.843 -257.613,-2.688C-258.699,-2.388 -259.988,-1.83 -261,-2.736C-261.357,-3.055 -261.698,-3.514 -262.216,-3.545C-266.028,-3.764 -269.468,-2.536 -273.369,-3.482C-274.42,-3.737 -275.478,-3.257 -276.418,-2.906C-278.21,-2.239 -280.278,-3.002 -282.103,-3.201C-282.925,-3.291 -283.787,-2.676 -284.432,-2.291C-286.26,-1.201 -287.912,-1.512 -289.715,-2.569C-291.075,-3.365 -292.256,-2.478 -293.273,-1.638C-296.199,0.781 -298.66,-2.46 -301.209,-0.771C-302.345,-0.019 -303.825,0.963 -304.923,-0.384C-305.1,-0.599 -305.651,-0.887 -305.966,-0.85C-307.355,-0.686 -310.131,0.283 -311.238,-0.316C-311.717,-0.575 -312.394,-0.962 -312.962,-0.805C-314.171,-0.473 -314.432,1.35 -316.294,0.493C-316.729,0.293 -317.337,0.222 -317.787,0.346C-318.861,0.641 -319.534,1.408 -320.752,0.716C-321.044,0.55 -321.391,0.257 -321.761,0.359C-323.251,0.769 -324.077,1.885 -325.725,1.376C-326.204,1.228 -327.155,0.805 -327.718,0.96C-329.31,1.398 -330.883,0.502 -332.254,0.708C-334.353,1.024 -337.964,2.448 -340.377,1.538C-340.066,1.348 -339.766,1.148 -339.442,0.972C-338.799,0.623 -339.251,-0.513 -339.947,-0.227C-340.559,0.024 -341.142,0.317 -341.703,0.638C-341.99,0.314 -342.236,-0.082 -342.422,-0.577C-342.54,-0.893 -342.841,-1.016 -343.147,-0.873C-343.378,-0.763 -346.569,0.838 -346.514,0.505C-346.468,0.223 -346.677,-0.024 -346.975,0.045C-347.249,0.108 -350.062,1.227 -350.393,0.587C-350.516,0.35 -350.845,0.558 -350.744,0.792C-350.361,1.681 -350.585,1.366 -349.897,2.007C-349.793,2.104 -349.64,2.105 -349.536,2.007C-348.589,1.693 -347.83,1.156 -347.257,0.394C-347.309,0.615 -347.188,0.777 -346.993,0.859C-346.629,1.012 -345.761,1.568 -345.34,1.39C-344.399,0.995 -343.48,-0.108 -342.992,0.727C-342.888,0.905 -342.769,1.064 -342.641,1.214C-346.371,3.679 -349.146,7.477 -352.626,10.28C-353.068,10.635 -352.481,11.395 -352.021,11.065C-348.213,8.34 -345.226,4.785 -341.382,2.169C-339.56,3.054 -336.988,2.837 -335.228,2.66C-333.873,2.525 -332.934,1.434 -331.531,2.25C-330.857,2.643 -329.846,3.594 -328.963,3.189C-327.16,2.361 -326.529,2.496 -324.598,2.996C-323.259,3.343 -322.215,1.068 -320.951,2.27C-320.601,2.603 -319.908,2.864 -319.431,2.733C-317.732,2.265 -316.085,2.588 -314.598,2.179C-311.66,1.37 -307.578,0.224 -304.758,1.875C-303.877,2.392 -303.185,2.293 -302.288,1.768C-299.214,-0.033 -297.69,1.161 -294.603,0.846C-293.462,0.73 -291.224,-1.979 -290.171,-0.995C-289.577,-0.441 -287.791,0.588 -286.932,0.588C-285.67,0.588 -284.624,-0.296 -283.665,-0.979C-282.434,-1.856 -277.873,-1.007 -276.002,-1.396C-273.14,-1.991 -271.011,-0.311 -268.311,-0.978C-265.516,-1.668 -263.462,-1.825 -260.932,-0.296C-259.804,0.386 -257.657,-1.056 -256.509,-0.517C-254.412,0.467 -253.721,1.949 -251.284,1.789C-249.744,1.688 -249.852,0.433 -248.06,1.907C-247.787,2.131 -247.473,2.366 -247.128,2.46C-244.683,3.133 -243.762,1.156 -240.71,2.944C-239.85,3.448 -238.258,3.231 -237.352,2.981C-235.63,2.507 -235.417,2.363 -233.559,2.411C-230.987,2.478 -228.883,2.915 -226.387,3.221C-224.872,3.407 -221.85,1.617 -220.744,3.003C-218.674,5.598 -214.975,2.309 -214.334,3.658C-213.33,5.778 -210.189,4.915 -208.211,4.352C-206.288,6.834 -202.173,5.901 -199.148,5.848C-197.031,5.81 -187.284,2.958 -186.344,5.259C-186.075,5.917 -185.333,6.393 -184.643,5.951C-183.929,5.494 -180.499,2.373 -180.081,4.972C-179.961,5.721 -178.987,5.991 -178.4,5.656C-173.99,3.145 -172.668,5.575 -169.684,8.12C-167.551,9.941 -165.166,10.498 -162.427,10.501C-160.46,10.503 -158.479,10.01 -156.523,9.841C-155.729,9.773 -154.117,10.734 -153.154,10.916C-152.034,11.129 -151.136,10.092 -150.438,9.156C-148.363,10.629 -146.445,8.407 -144.213,7.06C-144.137,7.283 -144.062,7.505 -143.998,7.733C-143.841,8.218 -143.224,8.566 -142.754,8.24C-141.878,7.306 -140.886,7.425 -139.778,8.597C-139.684,8.953 -139.308,9.284 -138.921,9.249C-138.673,9.228 -136.325,8.884 -136.429,9.528C-136.569,10.398 -135.828,10.943 -135.031,10.602C-130.862,8.82 -128.023,12.721 -124.222,13.076C-122.411,13.246 -119.918,13.816 -118.182,13.662C-116.776,13.537 -117.474,13.733 -116.931,14.924C-116.769,15.281 -116.289,15.526 -115.909,15.51C-115.491,15.491 -103.355,13.824 -103.386,13.702C-103.3,14.046 -102.926,14.367 -102.557,14.333C-101.09,14.196 -97.059,12.946 -96.768,14.247C-96.664,14.714 -96.034,14.986 -95.632,14.71C-94.861,14.182 -91.982,11.882 -91.2,13.916C-91.09,14.201 -90.795,14.45 -90.467,14.333C-89.275,13.91 -89.223,13.882 -88.06,13.301C-83.87,11.208 -86.343,13.626 -84.973,14.269C-82.926,15.229 -80.107,12.99 -78.294,14.78C-78.146,14.925 -77.876,15.028 -77.671,14.944C-76.676,14.538 -65.739,11.797 -64.88,13.016C-63.82,14.519 -56.472,12.496 -54.562,12.809C-50.379,13.494 -46.012,14.272 -41.571,13.507C-37.402,12.789 -34.242,13.225 -30.113,13.48C-26.829,13.683 -24.008,13.127 -20.845,12.83C-20.906,13.39 -20.424,13.805 -19.887,13.866C-16.671,14.229 -13.584,14.157 -10.375,13.768C-6.835,13.339 -3.534,13.614 0,13.481C1.104,13.44 1.11,11.734 0,11.762" style="fill:rgb(14,161,75);fill-rule:nonzero;"/>
        </g>
        <g transform="matrix(-0.714949,-0.699177,-0.699177,0.714949,7.95266,230.034)">
            <path d="M-4.853,-11.632C-3.941,-7.299 -4.252,-2.668 -3.869,1.738C-3.813,2.374 -4.786,2.371 -4.853,1.747C-5.321,-2.598 -5.847,-7.129 -5.789,-11.501C-5.782,-12.027 -4.967,-12.178 -4.853,-11.632" style="fill:rgb(14,161,75);fill-rule:nonzero;"/>
        </g>
        <g transform="matrix(1,0,0,1,12.125,240.447)">
            <path d="M0,-1.438C-0.927,-1.438 -0.927,0 0,0C0.927,0 0.927,-1.438 0,-1.438" style="fill:rgb(14,161,75);fill-rule:nonzero;"/>
        </g>
        <g transform="matrix(1,0,0,1,32.7773,250.391)">
            <path d="M0,-23.797C-2.882,-21.951 -5.618,-19.874 -8.254,-17.654C-8.495,-17.881 -8.883,-17.962 -9.201,-17.678C-12.753,-14.508 -16.151,-11.188 -19.528,-7.834C-19.827,-7.537 -19.816,-7.178 -19.655,-6.896C-21.651,-4.866 -23.62,-2.826 -25.584,-0.823C-26.079,-0.319 -25.315,0.444 -24.811,-0.05C-16.592,-8.105 -8.156,-15.535 0.89,-22.644C1.55,-23.163 0.694,-24.241 0,-23.797" style="fill:rgb(14,161,75);fill-rule:nonzero;"/>
        </g>
        <g transform="matrix(-0.711919,-0.702261,-0.702261,0.711919,4.3156,251.324)">
            <path d="M-10.468,-25.483C-8.363,-15.814 -8.482,-5.814 -9.031,4.018C-9.082,4.939 -10.511,4.957 -10.468,4.027C-10.009,-5.791 -10.416,-15.385 -11.843,-25.113C-11.971,-25.995 -10.668,-26.4 -10.468,-25.483" style="fill:rgb(14,161,75);fill-rule:nonzero;"/>
        </g>
        <g transform="matrix(1,0,0,1,65.4517,269.932)">
            <path d="M0,-40.206C-8.271,-34.472 -16.24,-28.29 -23.839,-21.689C-30.894,-15.562 -38.513,-8.985 -42.977,-0.635C-43.29,-0.05 -42.409,0.468 -42.086,-0.115C-37.577,-8.248 -29.63,-14.539 -22.646,-20.497C-15.041,-26.985 -7.017,-32.943 0.88,-39.065C1.532,-39.57 0.675,-40.674 0,-40.206" style="fill:rgb(14,161,75);fill-rule:nonzero;"/>
        </g>
        <g transform="matrix(1,0,0,1,76.707,270.478)">
            <path d="M0,-37.41C-8.347,-34.148 -15.702,-28.19 -22.579,-22.561C-30.782,-15.846 -38.413,-8.456 -46.396,-1.485C-47.172,-0.806 -46.042,0.308 -45.269,-0.358C-38.085,-6.55 -31.144,-13.015 -23.901,-19.139C-16.191,-25.657 -7.941,-30.741 0.554,-36.096C1.214,-36.513 0.787,-37.718 0,-37.41" style="fill:rgb(14,161,75);fill-rule:nonzero;"/>
        </g>
        <g transform="matrix(1,0,0,1,85.9297,282.886)">
            <path d="M0,-48.007C-9.559,-41.647 -18.304,-33.879 -27.074,-26.492C-36.819,-18.285 -46.39,-9.867 -55.908,-1.399C-56.685,-0.707 -55.542,0.427 -54.77,-0.26C-45.722,-8.311 -36.598,-16.269 -27.319,-24.053C-18.065,-31.816 -8.241,-38.966 0.824,-46.94C1.403,-47.449 0.642,-48.434 0,-48.007" style="fill:rgb(14,161,75);fill-rule:nonzero;"/>
        </g>
        <g transform="matrix(1,0,0,1,108.428,282.277)">
            <path d="M0,-49.494C-1.487,-48.514 -1.241,-48.719 -2.499,-47.325C-2.62,-47.191 -2.671,-47.036 -2.681,-46.883C-10.416,-39.374 -19.081,-33.021 -27.492,-26.272C-37.249,-18.443 -45.33,-8.902 -54.7,-0.663C-55.309,-0.127 -54.425,0.735 -53.816,0.222C-44.273,-7.83 -35.804,-17.012 -26.043,-24.823C-16.76,-32.252 -6.69,-38.888 1.373,-47.715C2.21,-48.632 1.117,-50.229 0,-49.494" style="fill:rgb(14,161,75);fill-rule:nonzero;"/>
        </g>
        <g transform="matrix(1,0,0,1,123.13,263.464)">
            <path d="M0,-29.465C-5.872,-25.541 -11.136,-20.528 -16.562,-16.016C-22.47,-11.104 -28.377,-6.191 -34.284,-1.278C-35.062,-0.632 -33.951,0.458 -33.18,-0.173C-27.725,-4.638 -22.271,-9.102 -16.817,-13.566C-10.926,-18.387 -4.494,-22.937 0.862,-28.348C1.418,-28.911 0.686,-29.923 0,-29.465" style="fill:rgb(14,161,75);fill-rule:nonzero;"/>
        </g>
        <g transform="matrix(1,0,0,1,144.413,277.901)">
            <path d="M0,-48.388C-3.223,-44.093 -8.751,-40.942 -12.828,-37.459C-17.799,-33.213 -22.466,-28.585 -27.107,-23.986C-31.476,-19.655 -35.588,-15.074 -39.624,-10.433C-41.817,-7.909 -45.104,-2.179 -48.295,-0.759C-49.08,-0.409 -48.517,0.908 -47.711,0.626C-44.885,-0.365 -42.528,-4.031 -40.6,-6.195C-35.688,-11.705 -30.631,-17.071 -25.388,-22.267C-20.326,-27.284 -15.106,-32.176 -9.65,-36.762C-5.841,-39.963 0.076,-42.749 2.013,-47.539C2.521,-48.795 0.682,-49.296 0,-48.388" style="fill:rgb(14,161,75);fill-rule:nonzero;"/>
        </g>
        <g transform="matrix(1,0,0,1,170.155,282.4)">
            <path d="M0,-45.789C-9.69,-39.76 -18.356,-31.859 -26.719,-24.146C-34.977,-16.53 -43.249,-8.428 -50.119,0.483C-50.156,0.531 -50.081,0.578 -50.041,0.544C-41.447,-6.798 -33.581,-15.036 -25.208,-22.635C-16.757,-30.304 -7.615,-37.019 1.183,-44.256C2.049,-44.968 0.928,-46.367 0,-45.789" style="fill:rgb(14,161,75);fill-rule:nonzero;"/>
        </g>
        <g transform="matrix(-0.684857,-0.728677,-0.728677,0.684857,138.96,254.702)">
            <path d="M-24.347,-56.538C-19.942,-35.05 -19.41,-11.814 -22.02,9.918C-22.198,11.396 -24.517,11.343 -24.347,9.847C-21.801,-12.524 -24.645,-34.072 -26.384,-56.339C-26.476,-57.522 -24.578,-57.666 -24.347,-56.538" style="fill:rgb(14,161,75);fill-rule:nonzero;"/>
        </g>
        <g transform="matrix(-0.66529,-0.746585,-0.746585,0.66529,168.894,255.457)">
            <path d="M-21.028,-47.247C-17.913,-28.493 -18.044,-9.275 -19.437,9.638C-19.513,10.663 -21.087,10.574 -21.028,9.546C-19.943,-9.361 -20.788,-28.054 -22.974,-46.856C-23.119,-48.107 -21.241,-48.527 -21.028,-47.247" style="fill:rgb(14,161,75);fill-rule:nonzero;"/>
        </g>
        <g transform="matrix(-0.630789,-0.775955,-0.775955,0.630789,202.265,249.456)">
            <path d="M-16.75,-35.082C-14.784,-20.807 -15.005,-6.417 -14.948,7.959C-14.943,9.13 -16.739,8.927 -16.75,7.773C-16.888,-6.442 -16.825,-20.664 -18.634,-34.791C-18.79,-36.006 -16.918,-36.304 -16.75,-35.082" style="fill:rgb(14,161,75);fill-rule:nonzero;"/>
        </g>
        <g transform="matrix(1,0,0,1,269.562,280.263)">
            <path d="M0,-40.851C-8.543,-36.88 -16.088,-29.74 -23.253,-23.738C-27.428,-20.242 -31.646,-16.814 -35.619,-13.085C-37.439,-11.377 -39.214,-9.618 -40.993,-7.868C-43.107,-5.788 -45.659,-2.166 -48.533,-1.157C-49.379,-0.86 -49.041,0.453 -48.16,0.199C-44.721,-0.789 -42.176,-4.153 -39.64,-6.514C-35.119,-10.722 -30.52,-14.801 -25.703,-18.667C-16.874,-25.755 -7.653,-32.28 1.24,-39.244C2.22,-40.01 0.975,-41.304 0,-40.851" style="fill:rgb(14,161,75);fill-rule:nonzero;"/>
        </g>
        <g transform="matrix(1,0,0,1,295.139,275.361)">
            <path d="M0,-30.254C-12.63,-20.688 -25.366,-11.473 -37.221,-0.921C-37.926,-0.293 -36.899,0.707 -36.193,0.106C-29.61,-5.491 -22.841,-10.842 -15.868,-15.947C-10.175,-20.117 -3.775,-23.642 1.222,-28.671C2.005,-29.46 0.934,-30.961 0,-30.254" style="fill:rgb(14,161,75);fill-rule:nonzero;"/>
        </g>
        <g transform="matrix(-0.593507,-0.804829,-0.804829,0.593507,282.131,249.19)">
            <path d="M-18.404,-37.158C-15.441,-21.898 -16.648,-5.98 -16.695,9.469C-16.697,10.559 -18.391,10.768 -18.404,9.652C-18.596,-5.98 -18.621,-21.389 -20.487,-36.935C-20.649,-38.293 -18.658,-38.465 -18.404,-37.158" style="fill:rgb(14,161,75);fill-rule:nonzero;"/>
        </g>
        <g transform="matrix(1,0,0,1,345.782,283.671)">
            <path d="M0,-39.288C-8.266,-35.115 -15.583,-28.318 -22.663,-22.434C-30.823,-15.651 -38.649,-8.47 -46.842,-1.73C-47.809,-0.936 -46.43,0.424 -45.473,-0.361C-37.731,-6.705 -30.009,-13.069 -22.273,-19.42C-14.643,-25.684 -6.182,-31.228 1.041,-37.938C1.788,-38.632 0.84,-39.712 0,-39.288" style="fill:rgb(14,161,75);fill-rule:nonzero;"/>
        </g>
        <g transform="matrix(-0.669549,-0.742768,-0.742768,0.669549,325.279,263.538)">
            <path d="M-10.85,-24.643C-9.657,-14.812 -9.52,-4.847 -9.336,5.045C-9.318,6.032 -10.806,5.928 -10.85,4.966C-11.306,-4.87 -12.197,-14.671 -12.736,-24.499C-12.795,-25.579 -10.981,-25.714 -10.85,-24.643" style="fill:rgb(14,161,75);fill-rule:nonzero;"/>
        </g>
        <g transform="matrix(-0.741902,-0.670508,-0.670508,0.741902,340.859,274.332)">
            <path d="M-2.74,-7.26C-2.183,-4.604 -1.724,-1.934 -1.204,0.727C-1.011,1.723 -2.493,2.241 -2.74,1.215C-3.372,-1.42 -3.942,-4.059 -4.423,-6.726C-4.621,-7.819 -2.976,-8.387 -2.74,-7.26" style="fill:rgb(14,161,75);fill-rule:nonzero;"/>
        </g>
        <g transform="matrix(1,0,0,1,95.3638,22.7298)">
            <path d="M0,8.089C-0.629,8.097 -1.351,8.542 -1.468,9.206C-2.281,13.837 -6.444,16.363 -10.618,17.691C-12.895,18.415 -22.044,18.599 -20.106,14.006C-19.64,12.902 -20.739,11.161 -22.009,12.104C-23.506,13.215 -24.85,13.989 -26.628,14.671C-28.162,15.259 -35.998,15.966 -35.166,12.498C-34.952,11.607 -35.758,10.684 -36.694,10.97C-39.978,11.974 -44.499,13.017 -47.726,11.373C-52.597,8.892 -43.712,-1.869 -40.341,-1.956C-39.5,-1.978 -39.51,-3.207 -40.341,-3.253C-40.547,-3.265 -40.729,-3.248 -40.924,-3.248C-40.95,-3.325 -40.983,-3.404 -41.027,-3.484C-42.527,-6.244 -31.87,-10.761 -31.007,-5.483C-31.041,-5.028 -31.042,-4.546 -30.993,-4.025C-30.819,-2.182 -28.209,-2.141 -28.098,-4.025C-28.518,-10.516 -19.34,-8.005 -17.206,-4.404C-16.417,-3.072 -14.487,-3.701 -14.408,-5.161C-14.132,-10.255 -1.466,-7.627 0.381,-4.672C0.987,-3.746 2.085,-3.82 2.741,-4.363C5.453,-2.873 7.732,-0.492 8.774,2.41C10.789,8.026 3.188,8.047 0,8.089M12.005,4.243C12.017,-1.765 6.626,-6.568 1.26,-8.346C1.076,-8.407 0.901,-8.424 0.733,-8.415C-4.099,-11.583 -13.516,-12.46 -16.492,-8.042C-20.21,-11.085 -26.733,-11.99 -29.606,-8.926C-33.996,-13.351 -46.172,-8.039 -43.417,-2.857C-45.327,-2.189 -46.688,-0.724 -48.108,1.349C-49.645,3.59 -51.903,7.681 -50.978,10.54C-49.247,15.888 -42.365,14.647 -37.691,13.698C-37.367,15.546 -35.659,16.905 -33.602,17.461C-29.84,18.477 -26.268,17.81 -23.019,16.048C-22.359,19.437 -17.806,20.917 -13.998,21.117C-7.853,21.44 -0.742,17.074 1.169,11.136C5.803,11.089 11.994,10.122 12.005,4.243" style="fill:rgb(36,170,225);fill-rule:nonzero;"/>
        </g>
        <g transform="matrix(1,0,0,1,222.921,26.0688)">
            <path d="M0,1.251C-1.086,1.302 -1.548,2.322 -1.146,3.25C2.073,10.687 -18.556,18.759 -21.367,10.236C-21.584,9.58 -22.373,9.163 -23.007,9.57C-26.942,12.097 -31.088,13.781 -35.747,14.375C-40.822,15.022 -49.825,12.774 -45.606,5.83C-45.207,5.17 -46.041,4.223 -46.717,4.719C-49.896,7.057 -58.782,9.627 -60.782,4.673C-62.642,0.069 -57.501,-8.222 -53.597,-10.826C-55.077,-9.061 -55.594,-7.21 -54.434,-5.772C-53.669,-4.824 -52.214,-6.038 -52.79,-7.041C-54.423,-9.884 -37.503,-20.31 -35.002,-9.308C-34.787,-8.361 -33.584,-8.158 -32.932,-8.761C-29.807,-11.654 -21.604,-15.967 -20.231,-9.307C-19.994,-8.152 -18.015,-8.082 -17.837,-9.307C-17.093,-14.433 -9.938,-12.145 -7.739,-9.569C-6.804,-8.473 -5.373,-9.684 -5.563,-10.835C-5.909,-12.928 -0.485,-8.74 0.032,-7.9C1.026,-6.286 4.36,1.047 0,1.251M1.912,-9.895C0.162,-12.731 -6.393,-15.894 -7.908,-13C-11.388,-15.121 -16.596,-15.751 -19.006,-12.851C-21.983,-17.153 -28.896,-14.873 -33.187,-11.738C-36.552,-19.916 -47.981,-16.405 -52.85,-11.638C-52.884,-12 -53.27,-12.342 -53.697,-12.118C-58.89,-9.403 -64.069,0.005 -61.76,5.822C-59.782,10.803 -52.494,8.665 -48.081,6.99C-49.504,10.636 -47.849,14.256 -43.475,15.694C-36.533,17.975 -29.142,15.741 -23.025,12.186C-18.644,21.561 3.208,13.727 1.636,3.641C7.02,2.044 4.213,-6.165 1.912,-9.895" style="fill:rgb(36,170,225);fill-rule:nonzero;"/>
        </g>
    </g>
</svg>
